<svg width="169" height="32" viewBox="0 0 169 32" fill="none" xmlns="http://www.w3.org/2000/svg">
<g clip-path="url(#clip0_49_114)">
<path fill-rule="evenodd" clip-rule="evenodd" d="M0 21.9689C0 24.0661 0.16254 24.2275 1.6254 25.1954C2.60064 25.6794 3.57587 26.3247 4.71365 26.8086C5.03873 27.1313 5.36381 27.2926 5.68889 27.4539C7.31429 28.4219 9.10222 29.3898 10.7276 30.3577C11.3778 30.6804 12.1905 31.1644 12.8406 31.487C13.3283 31.8096 13.8159 31.971 14.141 31.971C14.141 31.971 14.3035 31.971 14.466 31.971C14.9537 31.971 15.4413 31.6483 16.254 31.1644C17.3917 30.5191 18.367 30.0351 19.3422 29.3898C19.6673 29.2285 19.9924 29.0672 20.3175 28.9058C22.7556 27.4539 25.0311 26.1633 27.4692 24.7114C28.4444 24.2275 28.4444 23.4208 28.4444 22.4529C28.4444 21.485 28.4444 20.3557 28.4444 19.2264C28.4444 17.7745 28.4444 16.3226 28.4444 14.8707C28.4444 13.4188 28.4444 11.9669 28.4444 10.515C28.4444 7.93383 28.4444 7.93383 26.494 6.64324C24.8686 5.83662 23.2432 4.86869 21.7803 4.06207C20.1549 3.09413 18.5295 2.28752 17.0667 1.31958C15.7664 0.674284 15.1162 0.190315 14.466 0.0289917C14.3035 0.0289917 14.141 0.0289917 13.9784 0.0289917C13.3283 0.190315 12.353 0.835607 10.0775 2.12619C8.45206 2.93281 6.82667 3.90075 5.36381 4.86869C5.03873 5.03001 0.975238 7.28853 0.650159 7.61118C0.487619 7.7725 0.16254 8.25647 0.16254 8.57912C2.27556 8.57912 4.55111 8.57912 6.82667 8.57912C8.93968 8.57912 11.2152 8.57912 13.3283 8.57912C13.8159 8.57912 14.3035 8.41779 14.6286 8.57912C15.1162 8.57912 15.6038 8.57912 15.9289 8.57912C17.2292 8.74044 18.2044 9.06309 19.1797 10.1923C19.1797 10.3537 19.3422 10.515 19.3422 10.515C19.5048 10.999 19.8298 11.3216 19.8298 11.9669C19.8298 12.6122 19.8298 13.2575 19.5048 13.5801C19.1797 14.3868 19.0171 14.7094 18.367 15.1934C18.2044 15.3547 17.8794 15.3547 17.7168 15.516C19.3422 16 20.48 17.4519 20.48 19.2264C20.48 21.001 19.3422 22.7756 17.5543 23.2595C17.0667 23.4208 16.254 23.4208 15.4413 23.4208C13.1657 23.5822 10.8902 23.5822 8.6146 23.5822C7.80191 23.5822 7.96445 23.9048 7.96445 21.9689C7.96445 19.3878 7.96445 16.9679 7.96445 14.5481C9.58984 14.5481 11.2152 14.5481 13.0032 14.5481C14.6286 14.5481 16.254 14.7094 16.7416 13.2575C17.0667 12.6122 16.7416 11.8056 16.4165 11.4829C15.7664 10.999 15.1162 10.999 14.3035 10.999C13.3283 10.999 12.6781 10.999 11.7029 10.999C9.91492 10.999 7.96445 10.999 6.01397 10.999C4.22603 10.999 2.27556 10.999 0.325079 10.999C0.16254 10.999 0 10.8376 0 11.1603C0 12.9348 0 14.7094 0 16.484C0 18.2585 0 20.0331 0 21.8076V21.9689ZM10.8902 17.1292C10.8902 18.4198 10.8902 19.5491 10.8902 20.8397C10.8902 21.001 10.8902 21.001 11.0527 21.001C12.1905 21.001 15.4413 21.1623 16.254 20.8397C17.8794 20.1944 17.8794 17.7745 16.254 17.2906C15.2787 16.8066 12.353 16.9679 11.0527 16.9679C10.8902 16.9679 10.8902 16.9679 10.8902 17.1292Z" fill="#0068E1"/>
</g>
<path d="M35.9845 23.5V8.1H43.8605C45.8845 8.1 47.3951 8.474 48.3925 9.222C49.3898 9.95533 49.8885 10.9233 49.8885 12.126C49.8885 12.918 49.6758 13.6147 49.2505 14.216C48.8398 14.8027 48.2531 15.272 47.4905 15.624C46.7425 15.9613 45.8478 16.13 44.8065 16.13L45.2465 15.074C46.3318 15.074 47.2778 15.2427 48.0845 15.58C48.8911 15.9027 49.5145 16.3793 49.9545 17.01C50.4091 17.626 50.6365 18.3813 50.6365 19.276C50.6365 20.6107 50.0938 21.652 49.0085 22.4C47.9378 23.1333 46.3685 23.5 44.3005 23.5H35.9845ZM40.2965 20.354H43.9485C44.6965 20.354 45.2611 20.2293 45.6425 19.98C46.0385 19.716 46.2365 19.32 46.2365 18.792C46.2365 18.264 46.0385 17.8753 45.6425 17.626C45.2611 17.362 44.6965 17.23 43.9485 17.23H39.9885V14.216H43.2885C44.0218 14.216 44.5718 14.0913 44.9385 13.842C45.3051 13.5927 45.4885 13.2187 45.4885 12.72C45.4885 12.2213 45.3051 11.8547 44.9385 11.62C44.5718 11.3707 44.0218 11.246 43.2885 11.246H40.2965V20.354ZM51.0447 23.5L57.8427 8.1H62.1327L68.9527 23.5H64.4207L59.0967 10.234H60.8127L55.4887 23.5H51.0447ZM54.7627 20.508L55.8847 17.296H63.4087L64.5307 20.508H54.7627ZM70.1876 23.5V8.1H74.5436V20.046H81.8916V23.5H70.1876ZM87.6193 14.062H94.7693V17.318H87.6193V14.062ZM87.9273 20.134H95.9793V23.5H83.6153V8.1H95.6933V11.466H87.9273V20.134ZM106.163 23.808C104.931 23.808 103.794 23.61 102.753 23.214C101.711 22.818 100.802 22.2607 100.025 21.542C99.2619 20.8087 98.6679 19.958 98.2426 18.99C97.8172 18.022 97.6046 16.9587 97.6046 15.8C97.6046 14.6413 97.8172 13.578 98.2426 12.61C98.6679 11.642 99.2619 10.7987 100.025 10.08C100.802 9.34667 101.711 8.782 102.753 8.386C103.794 7.99 104.931 7.792 106.163 7.792C107.409 7.792 108.546 7.99 109.573 8.386C110.614 8.782 111.516 9.34667 112.279 10.08C113.041 10.7987 113.635 11.642 114.061 12.61C114.501 13.578 114.721 14.6413 114.721 15.8C114.721 16.9587 114.501 18.0293 114.061 19.012C113.635 19.98 113.041 20.8233 112.279 21.542C111.516 22.2607 110.614 22.818 109.573 23.214C108.546 23.61 107.409 23.808 106.163 23.808ZM106.163 20.2C106.749 20.2 107.292 20.0973 107.791 19.892C108.304 19.6867 108.744 19.3933 109.111 19.012C109.492 18.616 109.785 18.1467 109.991 17.604C110.211 17.0613 110.321 16.46 110.321 15.8C110.321 15.1253 110.211 14.524 109.991 13.996C109.785 13.4533 109.492 12.9913 109.111 12.61C108.744 12.214 108.304 11.9133 107.791 11.708C107.292 11.5027 106.749 11.4 106.163 11.4C105.576 11.4 105.026 11.5027 104.513 11.708C104.014 11.9133 103.574 12.214 103.193 12.61C102.826 12.9913 102.533 13.4533 102.313 13.996C102.107 14.524 102.005 15.1253 102.005 15.8C102.005 16.46 102.107 17.0613 102.313 17.604C102.533 18.1467 102.826 18.616 103.193 19.012C103.574 19.3933 104.014 19.6867 104.513 19.892C105.026 20.0973 105.576 20.2 106.163 20.2ZM117.002 23.5V8.1H120.588L126.968 18.572H125.076L131.28 8.1H134.866L134.91 23.5H130.906L130.862 14.194H131.544L126.902 21.982H124.966L120.192 14.194H121.028V23.5H117.002ZM145.758 23.808C144.526 23.808 143.39 23.61 142.348 23.214C141.307 22.818 140.398 22.2607 139.62 21.542C138.858 20.8087 138.264 19.958 137.838 18.99C137.413 18.022 137.2 16.9587 137.2 15.8C137.2 14.6413 137.413 13.578 137.838 12.61C138.264 11.642 138.858 10.7987 139.62 10.08C140.398 9.34667 141.307 8.782 142.348 8.386C143.39 7.99 144.526 7.792 145.758 7.792C147.005 7.792 148.142 7.99 149.168 8.386C150.21 8.782 151.112 9.34667 151.874 10.08C152.637 10.7987 153.231 11.642 153.656 12.61C154.096 13.578 154.316 14.6413 154.316 15.8C154.316 16.9587 154.096 18.0293 153.656 19.012C153.231 19.98 152.637 20.8233 151.874 21.542C151.112 22.2607 150.21 22.818 149.168 23.214C148.142 23.61 147.005 23.808 145.758 23.808ZM145.758 20.2C146.345 20.2 146.888 20.0973 147.386 19.892C147.9 19.6867 148.34 19.3933 148.706 19.012C149.088 18.616 149.381 18.1467 149.586 17.604C149.806 17.0613 149.916 16.46 149.916 15.8C149.916 15.1253 149.806 14.524 149.586 13.996C149.381 13.4533 149.088 12.9913 148.706 12.61C148.34 12.214 147.9 11.9133 147.386 11.708C146.888 11.5027 146.345 11.4 145.758 11.4C145.172 11.4 144.622 11.5027 144.108 11.708C143.61 11.9133 143.17 12.214 142.788 12.61C142.422 12.9913 142.128 13.4533 141.908 13.996C141.703 14.524 141.6 15.1253 141.6 15.8C141.6 16.46 141.703 17.0613 141.908 17.604C142.128 18.1467 142.422 18.616 142.788 19.012C143.17 19.3933 143.61 19.6867 144.108 19.892C144.622 20.0973 145.172 20.2 145.758 20.2ZM156.598 23.5V8.1H160.954V20.046H168.302V23.5H156.598Z" fill="#0068E1"/>
<defs>
<clipPath id="clip0_49_114">
<rect width="28.4444" height="32" fill="white"/>
</clipPath>
</defs>
</svg>
